<!-- <svg xmlns="http://www.w3.org/2000/svg" width="51" height="50" viewBox="0 0 51 50" fill="none">
  <path d="M22.2975 1H2.69805C1.75918 1 1 1.74121 1 2.65762V22.3379C1 23.2543 1.75918 24 2.69805 24H22.2975C23.2363 24 24 23.2543 24 22.3424V2.65762C24 1.74121 23.2363 1 22.2975 1ZM7.82363 20.5994H4.40957V9.62051H7.82363V20.5994ZM6.1166 8.12461C5.02051 8.12461 4.13555 7.23965 4.13555 6.14805C4.13555 5.05645 5.02051 4.17148 6.1166 4.17148C7.2082 4.17148 8.09316 5.05645 8.09316 6.14805C8.09316 7.23516 7.2082 8.12461 6.1166 8.12461ZM20.5994 20.5994H17.1898V15.2627C17.1898 13.9914 17.1674 12.3518 15.4154 12.3518C13.641 12.3518 13.3715 13.7398 13.3715 15.1729V20.5994H9.96641V9.62051H13.2367V11.1209H13.2816C13.7354 10.2584 14.8494 9.34648 16.507 9.34648C19.9615 9.34648 20.5994 11.6195 20.5994 14.5754V20.5994Z" fill="#0288D1"/>
</svg> -->


<!-- <svg xmlns="http://www.w3.org/2000/svg" x="0px" y="0px" width="50" height="50" viewBox="0 0 48 48">
  <path fill="#0288D1" d="M42,37c0,2.762-2.238,5-5,5H11c-2.761,0-5-2.238-5-5V11c0-2.762,2.239-5,5-5h26c2.762,0,5,2.238,5,5V37z"></path>
  <path fill="#FFF" d="M12 19H17V36H12zM14.485 17h-.028C12.965 17 12 15.888 12 14.499 12 13.08 12.995 12 14.514 12c1.521 0 2.458 1.08 2.486 2.499C17 15.887 16.035 17 14.485 17zM36 36h-5v-9.099c0-2.198-1.225-3.698-3.192-3.698-1.501 0-2.313 1.012-2.707 1.99C24.957 25.543 25 26.511 25 27v9h-5V19h5v2.616C25.721 20.5 26.85 19 29.738 19c3.578 0 6.261 2.25 6.261 7.274L36 36 36 36z"></path>
</svg> -->
<svg width="51" height="50" viewBox="0 0 51 50" fill="none" xmlns="http://www.w3.org/2000/svg">
<path fill="#0288d1" d="M24 4A20 20 0 1 0 24 44A20 20 0 1 0 24 4Z"></path><path fill="#fff" d="M14 19H18V34H14zM15.988 17h-.022C14.772 17 14 16.11 14 14.999 14 13.864 14.796 13 16.011 13c1.217 0 1.966.864 1.989 1.999C18 16.11 17.228 17 15.988 17zM35 24.5c0-3.038-2.462-5.5-5.5-5.5-1.862 0-3.505.928-4.5 2.344V19h-4v15h4v-8c0-1.657 1.343-3 3-3s3 1.343 3 3v8h4C35 34 35 24.921 35 24.5z"></path>
</svg>








